<?xml version="1.0" encoding="UTF-8"?>
<svg id="Layer_1" xmlns="http://www.w3.org/2000/svg" xmlns:xlink="http://www.w3.org/1999/xlink" version="1.1" viewBox="0 0 65 65">
  <!-- Generator: Adobe Illustrator 29.1.0, SVG Export Plug-In . SVG Version: 2.1.0 Build 142)  -->
  <defs>
    <style>
      .st0 {
        fill: none;
        stroke: #fff;
        stroke-miterlimit: 10;
      }

      .st1 {
        fill: url(#linear-gradient);
      }
    </style>
    <linearGradient id="linear-gradient" x1="41.3" y1="1021.4" x2="22.3" y2="1075.4" gradientTransform="translate(0 -1014)" gradientUnits="userSpaceOnUse">
      <stop offset="0" stop-color="#71c5e8"/>
      <stop offset="1" stop-color="#006ba6"/>
    </linearGradient>
  </defs>
  <rect id="Rectangle_3696" class="st1" width="65" height="65" rx="7" ry="7"/>
  <g>
    <g>
      <g>
        <ellipse class="st0" cx="32.5" cy="19.2" rx="6.6" ry="2.8"/>
        <path class="st0" d="M39.1,24.6c0,1.5-3,2.8-6.6,2.8s-1.2,0-1.7,0v5.8c.5,0,1.1,0,1.7,0,3.7,0,6.6-1.2,6.6-2.8"/>
        <path class="st0" d="M39.1,34.7c0,1.5-3,2.8-6.6,2.8s-6.6-1.2-6.6-2.8"/>
        <line class="st0" x1="25.9" y1="34.7" x2="25.9" y2="19.2"/>
        <line class="st0" x1="39.1" y1="19.2" x2="39.1" y2="34.7"/>
      </g>
      <g>
        <ellipse class="st0" cx="14.6" cy="19.2" rx="6.6" ry="2.8"/>
        <path class="st0" d="M21.2,24.6c0,1.5-3,2.8-6.6,2.8s-1.2,0-1.7,0v5.8c.5,0,1.1,0,1.7,0,3.6,0,6.6-1.2,6.6-2.8"/>
        <path class="st0" d="M21.2,34.7c0,1.5-3,2.8-6.6,2.8s-6.6-1.2-6.6-2.8"/>
        <line class="st0" x1="7.9" y1="34.7" x2="7.9" y2="19.2"/>
        <line class="st0" x1="21.2" y1="19.2" x2="21.2" y2="34.7"/>
      </g>
      <g>
        <ellipse class="st0" cx="50.4" cy="19.2" rx="6.6" ry="2.8"/>
        <path class="st0" d="M57,24.6c0,1.5-3,2.8-6.6,2.8s-1.2,0-1.7,0v5.8c.5,0,1.1,0,1.7,0,3.7,0,6.6-1.2,6.6-2.8"/>
        <path class="st0" d="M57,34.7c0,1.5-3,2.8-6.6,2.8s-6.6-1.2-6.6-2.8"/>
        <line class="st0" x1="43.8" y1="34.7" x2="43.8" y2="19.2"/>
        <line class="st0" x1="57" y1="19.2" x2="57" y2="34.7"/>
      </g>
    </g>
    <g>
      <polyline class="st0" points="11.5 46.4 13.9 48.6 17.6 43.2"/>
      <polyline class="st0" points="29.4 46.4 31.8 48.6 35.6 43.2"/>
      <g>
        <line class="st0" x1="47.8" y1="43.2" x2="53.1" y2="48.6"/>
        <line class="st0" x1="53.1" y1="43.2" x2="47.8" y2="48.6"/>
      </g>
    </g>
  </g>
</svg>