<?xml version="1.0" encoding="UTF-8"?>
<svg id="Layer_1" xmlns="http://www.w3.org/2000/svg" xmlns:xlink="http://www.w3.org/1999/xlink" version="1.1" viewBox="0 0 65 65">
  <!-- Generator: Adobe Illustrator 29.1.0, SVG Export Plug-In . SVG Version: 2.1.0 Build 142)  -->
  <defs>
    <style>
      .st0 {
        fill: url(#linear-gradient);
      }

      .st1 {
        fill: none;
        stroke: #fff;
      }
    </style>
    <linearGradient id="linear-gradient" x1="41.3" y1="58.6" x2="22.3" y2="4.6" gradientTransform="translate(0 66) scale(1 -1)" gradientUnits="userSpaceOnUse">
      <stop offset="0" stop-color="#71c5e8"/>
      <stop offset="1" stop-color="#006ba6"/>
    </linearGradient>
  </defs>
  <g id="Group_4446">
    <rect id="Rectangle_3696" class="st0" width="65" height="65" rx="7" ry="7"/>
    <g id="Group_4444">
      <path id="Ellipse_288" class="st1" d="M51.9,29.6c-.8.5-2.3.8-4.1,1-1.8.2-3.8.2-5.6.2-1.9,0-3.7-.2-5-.3-.6,0-1.1,0-1.4-.1.2-.3.4-.8.6-1.3.6-1.2,1.4-2.8,2.3-4.4.9-1.7,1.9-3.4,3-4.8,1-1.4,2-2.5,2.9-3,3.5-2,8.1-.8,10.1,2.7s.8,8-2.7,10.1Z"/>
      <path id="Ellipse_289" class="st1" d="M50.3,26.2c-1.7,1-3.9.4-4.9-1.3-1-1.7-.4-3.9,1.3-4.9,1.7-1,3.9-.4,4.9,1.3,1,1.7.4,3.9-1.3,4.9Z"/>
      <path id="Ellipse_288_x5F_2" class="st1" d="M20.5,16.9c.8.5,1.8,1.6,2.9,3,1,1.4,2,3.1,3,4.8.9,1.6,1.7,3.2,2.3,4.4.3.5.5,1,.6,1.3-.4,0-.8,0-1.4.1-1.3,0-3.1.2-5,.3-1.9,0-3.9,0-5.6-.2-1.8-.2-3.2-.5-4.1-1-3.5-2-4.8-6.5-2.7-10.1,2-3.5,6.6-4.7,10.1-2.7Z"/>
      <path id="Ellipse_289_x5F_2" class="st1" d="M18.3,20c1.7,1,2.3,3.2,1.3,4.9-1,1.7-3.2,2.3-4.9,1.3-1.7-1-2.3-3.2-1.3-4.9,1-1.7,3.2-2.3,4.9-1.3Z"/>
      <path id="Ellipse_288_x5F_3" class="st1" d="M39.9,14.9c0,1-.5,2.4-1.2,4-.7,1.6-1.7,3.3-2.7,4.9-1,1.6-2,3.1-2.7,4.2-.3.5-.6.9-.8,1.2-.2-.3-.5-.7-.8-1.2-.7-1.1-1.7-2.5-2.7-4.2-1-1.6-2-3.3-2.7-4.9-.7-1.6-1.2-3-1.2-4,0-4.1,3.3-7.4,7.4-7.4s7.4,3.3,7.4,7.4Z"/>
      <path id="Ellipse_289_x5F_3" class="st1" d="M36.1,14.6c0,2-1.6,3.6-3.6,3.6s-3.6-1.6-3.6-3.6,1.6-3.6,3.6-3.6,3.6,1.6,3.6,3.6Z"/>
      <g id="Group_4433">
        <path id="Ellipse_288_x5F_4" class="st1" d="M13.1,35.4c.8-.5,2.3-.8,4.1-1,1.8-.2,3.8-.2,5.6-.2,1.9,0,3.7.2,5,.3.6,0,1.1,0,1.4.1-.2.3-.4.8-.6,1.3-.6,1.2-1.4,2.8-2.3,4.4-.9,1.7-1.9,3.4-3,4.8-1,1.4-2,2.5-2.9,3-3.5,2-8.1.8-10.1-2.7-2-3.5-.8-8,2.7-10.1Z"/>
        <path id="Ellipse_289_x5F_4" class="st1" d="M14.7,38.8c1.7-1,3.9-.4,4.9,1.3s.4,3.9-1.3,4.9c-1.7,1-3.9.4-4.9-1.3-1-1.7-.4-3.9,1.3-4.9Z"/>
      </g>
      <g id="Group_4435">
        <path id="Ellipse_288_x5F_5" class="st1" d="M44.5,48.1c-.8-.5-1.8-1.6-2.9-3-1-1.4-2-3.1-3-4.8-.9-1.6-1.7-3.2-2.3-4.4-.3-.5-.5-1-.6-1.3.4,0,.8,0,1.4-.1,1.3,0,3.1-.2,5-.3,1.9,0,3.9,0,5.6.2,1.8.2,3.2.5,4.1,1,3.5,2,4.8,6.5,2.7,10.1-2,3.5-6.6,4.7-10.1,2.7Z"/>
        <path id="Ellipse_289_x5F_5" class="st1" d="M46.7,45c-1.7-1-2.3-3.2-1.3-4.9s3.2-2.3,4.9-1.3c1.7,1,2.3,3.2,1.3,4.9s-3.2,2.3-4.9,1.3Z"/>
      </g>
      <g id="Group_4434">
        <path id="Ellipse_288_x5F_6" class="st1" d="M25.1,50.1c0-1,.5-2.4,1.2-4,.7-1.6,1.7-3.3,2.7-4.9,1-1.6,2-3.1,2.7-4.2.3-.5.6-.9.8-1.2.2.3.5.7.8,1.2.7,1.1,1.7,2.5,2.7,4.2,1,1.6,2,3.3,2.7,4.9.7,1.6,1.2,3,1.2,4,0,4.1-3.3,7.4-7.4,7.4s-7.4-3.3-7.4-7.4Z"/>
        <path id="Ellipse_289_x5F_6" class="st1" d="M28.9,50.4c0-2,1.6-3.6,3.6-3.6s3.6,1.6,3.6,3.6-1.6,3.6-3.6,3.6-3.6-1.6-3.6-3.6Z"/>
      </g>
    </g>
  </g>
</svg>