<?xml version="1.0" encoding="UTF-8"?>
<svg id="Layer_1" xmlns="http://www.w3.org/2000/svg" xmlns:xlink="http://www.w3.org/1999/xlink" version="1.1" viewBox="0 0 65 65">
  <!-- Generator: Adobe Illustrator 29.1.0, SVG Export Plug-In . SVG Version: 2.1.0 Build 142)  -->
  <defs>
    <style>
      .st0 {
        fill: #fff;
        fill-rule: evenodd;
      }

      .st1 {
        fill: url(#linear-gradient);
      }

      .st2 {
        fill: none;
        stroke: #fff;
      }
    </style>
    <linearGradient id="linear-gradient" x1="41.3" y1="58.6" x2="22.3" y2="4.6" gradientTransform="translate(0 66) scale(1 -1)" gradientUnits="userSpaceOnUse">
      <stop offset="0" stop-color="#71c5e8"/>
      <stop offset="1" stop-color="#006ba6"/>
    </linearGradient>
  </defs>
  <g id="Group_4448">
    <rect id="Rectangle_3695" class="st1" width="65" height="65" rx="7" ry="7"/>
    <g id="Group_4477">
      <path id="Subtract" class="st0" d="M29.4,9.5c0-.3-.2-.5-.5-.5s-.5.2-.5.5v4.1c0,.3.2.5.5.5s.5-.2.5-.5v-4.1ZM14.8,15.1c-.2-.2-.5-.2-.7,0-.2.2-.2.5,0,.7l2.9,2.9c.2.2.5.2.7,0,.2-.2.2-.5,0-.7l-2.9-2.9ZM43.7,15.8c.2-.2.2-.5,0-.7-.2-.2-.5-.2-.7,0l-2.9,2.9c-.2.2-.2.5,0,.7.2.2.5.2.7,0l2.9-2.9ZM21.3,29.9c0-4.2,3.4-7.7,7.7-7.7s7.7,3.4,7.7,7.6c.3-.1.7-.2,1-.3-.2-4.6-4-8.3-8.7-8.3s-8.7,3.9-8.7,8.7,1.6,5.9,4.1,7.4c0-.3.2-.7.3-1-2.1-1.4-3.5-3.7-3.5-6.4ZM8.5,29.4c-.3,0-.5.2-.5.5s.2.5.5.5h4.1c.3,0,.5-.2.5-.5s-.2-.5-.5-.5h-4.1ZM45.3,29.4c-.3,0-.5.2-.5.5s.2.5.5.5h4.1c.3,0,.5-.2.5-.5s-.2-.5-.5-.5h-4.1ZM17.7,41.9c.2-.2.2-.5,0-.7-.2-.2-.5-.2-.7,0l-2.9,2.9c-.2.2-.2.5,0,.7.2.2.5.2.7,0l2.9-2.9Z"/>
      <path id="Vector" class="st2" d="M40.2,29.2c-3.6,0-6.8,1.9-8.3,4.9-.8-.5-1.7-.7-2.7-.7-2.6,0-4.8,2.1-4.9,4.7-2.6,1-4.5,3.8-4.5,6.7s2.9,6.9,6.7,6.9h13.4c7.4,0,10.8.5,13.8-2.5.9-1.1,1.4-2.4,1.4-3.9,0-3.3-2.6-6.3-5.7-6.7,0-.1,0-.3,0-.4,0-5.1-4-9.1-9.2-9.1Z"/>
    </g>
  </g>
</svg>